<?xml version="1.0" standalone="no"?>
<!DOCTYPE svg PUBLIC "-//W3C//DTD SVG 20010904//EN"
 "http://www.w3.org/TR/2001/REC-SVG-20010904/DTD/svg10.dtd">
<svg version="1.0" xmlns="http://www.w3.org/2000/svg"
 width="500.000000pt" height="500.000000pt" viewBox="0 0 500.000000 500.000000"
 preserveAspectRatio="xMidYMid meet">

<g transform="translate(0.000000,500.000000) scale(0.100000,-0.100000)"
fill="#000000" stroke="none">
<path d="M2355 3700 c-231 -26 -431 -189 -510 -417 l-24 -66 -120 2 -121 2 0
-93 0 -93 -48 -27 c-89 -50 -160 -109 -183 -153 -22 -41 -22 -44 -6 -69 25
-37 71 -58 156 -67 41 -5 78 -14 83 -21 4 -7 8 -77 8 -154 l0 -142 30 -12 c16
-7 27 -16 24 -21 -3 -5 3 -9 12 -9 11 0 5 -8 -17 -23 -39 -26 -38 -16 -16
-212 9 -71 18 -153 20 -181 5 -53 39 -114 64 -114 7 0 64 20 126 44 61 24 153
54 202 66 112 29 128 42 119 99 -9 55 -38 91 -73 91 -30 0 -120 -29 -244 -79
-43 -17 -82 -31 -87 -31 -6 0 -10 13 -10 29 0 26 7 31 73 61 39 18 115 42 167
54 52 12 101 25 108 29 33 22 -13 107 -59 107 -33 0 -134 -28 -215 -61 -89
-35 -96 -35 -92 -6 3 19 23 28 146 70 79 26 168 50 198 53 l54 7 0 -83 0 -82
30 6 c29 5 30 4 31 -32 l2 -37 8 35 c4 21 6 -18 4 -95 -3 -81 -1 -121 4 -105
7 20 9 12 10 -36 1 -85 25 -104 83 -63 l30 22 -7 157 c-7 137 -5 158 8 163 9
3 20 0 25 -6 27 -36 129 -230 147 -282 20 -58 22 -60 55 -60 l35 0 8 60 c5 33
6 108 2 168 l-5 107 35 0 c20 0 54 10 75 23 36 20 40 26 40 61 0 38 1 38 31
32 17 -3 40 -6 51 -6 20 0 20 -4 13 -173 -8 -198 0 -251 42 -270 22 -10 28 -8
44 12 11 13 19 17 19 10 0 -8 3 -10 10 -3 5 5 11 101 12 224 l3 214 80 16 c78
15 80 16 98 54 12 25 16 48 12 67 l-7 29 -95 -6 -95 -7 7 154 c6 130 11 164
32 218 14 35 30 90 37 122 6 32 16 63 21 68 6 6 57 31 115 56 137 61 234 118
292 173 108 100 72 167 -102 192 -75 11 -161 8 -323 -11 l-88 -11 -88 85
c-147 142 -310 199 -506 177z m247 -256 c16 -18 15 -19 -27 -19 -29 0 -53 -7
-74 -22 l-30 -23 6 34 c3 22 -2 46 -15 72 l-20 39 39 0 c23 0 49 9 66 21 l28
21 5 -52 c3 -29 13 -61 22 -71z m179 -20 c7 -8 0 -13 -23 -17 -18 -2 -33 -4
-34 -3 -1 0 -4 13 -7 27 -5 21 -2 27 21 35 23 8 27 7 30 -11 2 -11 8 -25 13
-31z m657 -43 c12 -6 22 -17 22 -23 0 -21 -68 -74 -161 -125 -106 -58 -318
-148 -327 -138 -15 14 19 39 103 74 112 47 239 111 232 117 -2 2 -53 -16 -113
-41 -60 -25 -120 -45 -132 -43 -20 3 -28 15 -48 78 -19 61 -21 77 -11 88 29
28 386 39 435 13z m-741 -106 c-54 -24 -57 -25 -57 -6 0 11 -3 27 -7 37 -3 9
-2 15 3 12 5 -3 18 -2 29 2 16 6 21 2 27 -18 4 -14 6 -26 5 -27z m243 -40 c18
-22 -2 -142 -27 -161 -23 -17 -132 -18 -155 0 -15 11 -18 29 -18 95 l0 81 94
0 c72 0 97 -4 106 -15z m-1135 -69 c17 -12 19 -35 23 -299 l5 -285 59 -7 c33
-4 61 -5 64 -2 3 2 8 131 11 286 7 340 0 321 130 321 l86 0 -7 -77 c-3 -42 -6
-118 -6 -170 l0 -93 -27 0 -28 0 0 -222 c0 -200 -2 -223 -17 -226 -10 -2 -19
5 -23 18 -12 37 -41 38 -164 8 -63 -15 -127 -28 -141 -27 -14 1 16 11 65 23
50 12 97 25 105 29 34 14 -81 -6 -162 -29 -83 -23 -88 -23 -116 -7 -29 17 -31
21 -36 108 -4 49 -7 219 -9 378 l-2 287 86 0 c56 0 92 -5 104 -14z m1141 -168
c-3 -24 -8 -113 -11 -198 -3 -85 -8 -194 -11 -242 l-7 -88 -93 0 -94 0 0 285
0 285 111 0 110 0 -5 -42z m-259 -5 c-13 -13 -425 -123 -460 -123 -12 0 -17 6
-15 16 2 12 53 29 193 65 105 27 210 55 235 62 39 13 45 13 48 0 2 -8 1 -17
-1 -20z m-1107 -123 l0 -90 -55 0 c-57 0 -125 21 -125 39 0 19 46 61 110 100
36 22 66 40 68 40 1 1 2 -39 2 -89z m350 -40 c0 -11 -6 -20 -14 -20 -8 0 -21
-3 -30 -6 -11 -4 -16 0 -16 14 0 21 12 30 43 31 11 1 17 -6 17 -19z m748 -22
c8 -8 12 -62 12 -178 l0 -166 -32 -9 c-50 -15 -49 -51 2 -103 47 -49 52 -83
15 -100 -14 -7 -41 -12 -59 -12 l-34 0 -11 68 c-18 106 -22 122 -31 122 -5 0
-11 -8 -13 -17 -4 -14 -5 -13 -6 4 0 12 -5 25 -11 28 -6 3 -10 48 -10 101 l0
94 -70 0 -70 0 0 -141 0 -142 -34 45 c-53 69 -88 76 -123 25 -19 -27 -23 -47
-23 -111 0 -58 -3 -77 -12 -74 -10 4 -14 72 -16 286 l-2 282 65 0 c50 0 67 -4
71 -15 5 -13 9 -13 22 -3 13 12 86 18 308 26 28 1 55 -3 62 -10z m-750 -135
l3 -63 -31 0 -30 0 0 66 0 65 28 -3 c26 -3 27 -6 30 -65z m532 -208 c0 -7 -7
-19 -16 -26 -12 -9 -15 -23 -10 -49 6 -39 33 -192 41 -230 3 -14 -13 9 -35 50
-37 72 -39 79 -40 171 l0 96 30 0 c17 0 30 -6 30 -12z m77 -107 c-3 -7 -5 -2
-5 12 0 14 2 19 5 13 2 -7 2 -19 0 -25z m10 -40 c-3 -8 -6 -5 -6 6 -1 11 2 17
5 13 3 -3 4 -12 1 -19z m-350 -60 c-3 -8 -6 -5 -6 6 -1 11 2 17 5 13 3 -3 4
-12 1 -19z m360 0 c-3 -8 -6 -5 -6 6 -1 11 2 17 5 13 3 -3 4 -12 1 -19z m-708
-113 c-13 -12 -79 -34 -79 -25 0 5 15 14 33 19 37 11 52 13 46 6z m728 -27
c-3 -7 -5 -2 -5 12 0 14 2 19 5 13 2 -7 2 -19 0 -25z m10 -105 c-3 -10 -5 -4
-5 12 0 17 2 24 5 18 2 -7 2 -21 0 -30z m-290 -65 c-2 -13 -4 -5 -4 17 -1 22
1 32 4 23 2 -10 2 -28 0 -40z m-527 -88 c-8 -5 -22 -9 -30 -9 -10 0 -8 3 5 9
27 12 43 12 25 0z"/>
<path d="M4085 2800 c-4 -6 -4 -24 0 -40 8 -35 4 -36 -31 -14 -20 13 -28 14
-37 5 -9 -10 -4 -18 22 -40 l35 -29 -35 -7 c-19 -4 -37 -9 -41 -11 -11 -7 2
-33 15 -29 7 2 27 6 45 9 l34 6 -21 -34 c-25 -40 -26 -52 -6 -59 9 -4 21 5 32
23 22 38 30 38 38 0 5 -21 13 -30 26 -30 21 0 24 16 9 54 -11 31 -7 32 30 6
25 -18 29 -18 41 -4 13 16 12 19 -35 45 -15 9 -16 13 -5 20 8 5 24 9 37 9 19
0 23 5 20 23 -2 12 -8 21 -13 21 -6 -1 -25 -5 -43 -9 l-33 -7 20 40 c18 36 19
41 4 46 -9 4 -17 5 -18 4 -1 -2 -11 -18 -22 -37 l-21 -35 -12 42 c-11 41 -23
52 -35 32z"/>
<path d="M3336 2481 c-22 -24 -73 -156 -82 -210 -6 -35 -12 -44 -40 -56 -40
-16 -68 -57 -59 -84 3 -11 17 -29 31 -40 l25 -20 -15 -83 c-17 -101 -8 -131
40 -136 38 -4 52 12 63 69 7 37 9 39 10 14 1 -23 3 -27 11 -15 5 8 10 27 10
42 0 14 5 49 12 77 11 50 12 51 48 51 l36 0 18 -74 c31 -132 77 -199 113 -163
16 16 16 23 -1 126 -14 82 -15 114 -7 129 6 11 11 35 11 52 0 24 -7 35 -30 48
-27 15 -30 22 -30 68 0 27 -5 55 -10 60 -6 6 -13 34 -17 63 -5 47 -10 55 -44
77 -46 29 -70 30 -93 5z m63 -248 c1 -18 -5 -23 -24 -23 -28 0 -28 9 -2 90
l11 35 7 -40 c4 -22 8 -50 8 -62z m-82 -245 c-3 -7 -5 -2 -5 12 0 14 2 19 5
13 2 -7 2 -19 0 -25z"/>
<path d="M1102 2482 c-9 -6 -11 -31 -8 -90 3 -45 7 -86 10 -91 3 -5 -3 -11
-14 -14 -11 -3 -23 -12 -26 -21 -7 -18 24 -63 47 -69 16 -4 20 -28 55 -273 6
-42 39 -72 62 -57 15 9 17 29 15 162 l-2 151 35 0 c39 0 46 -11 124 -195 43
-101 50 -110 78 -116 70 -14 68 55 -6 203 l-50 98 73 0 c77 0 85 5 85 55 0 48
-179 178 -329 239 -64 26 -124 33 -149 18z m213 -152 c33 -16 69 -36 80 -44
20 -15 20 -15 -3 -16 -13 0 -46 10 -73 21 -38 17 -53 19 -62 10 -15 -15 -27
-14 -27 2 0 6 -7 25 -15 41 -15 28 -15 28 13 22 15 -4 54 -20 87 -36z"/>
<path d="M3601 2456 c-11 -13 -10 -47 4 -188 10 -95 20 -224 23 -286 3 -86 8
-115 19 -119 7 -3 58 2 111 11 54 9 132 16 174 16 107 0 113 10 68 100 -6 12
-30 15 -123 15 l-116 0 -5 70 c-26 341 -32 380 -59 383 -7 1 -28 5 -48 8 -25
4 -39 1 -48 -10z m27 -118 c1 -61 0 -109 -2 -107 -8 9 -17 219 -9 219 5 0 10
-50 11 -112z m79 65 c-3 -10 -5 -4 -5 12 0 17 2 24 5 18 2 -7 2 -21 0 -30z"/>
<path d="M1252 2150 c0 -14 2 -19 5 -12 2 6 2 18 0 25 -3 6 -5 1 -5 -13z"/>
<path d="M1260 2052 c0 -39 5 -74 10 -77 7 -4 8 18 4 67 -9 95 -14 99 -14 10z"/>
<path d="M3761 1859 c-41 -5 -77 -12 -80 -15 -3 -4 19 -4 49 0 30 3 99 6 153
6 58 0 97 4 97 10 0 12 -112 11 -219 -1z"/>
</g>
</svg>
